<?xml version="1.0" standalone="no"?><!DOCTYPE svg PUBLIC "-//W3C//DTD SVG 1.1//EN" "http://www.w3.org/Graphics/SVG/1.1/DTD/svg11.dtd"><svg t="1655916145135" class="icon" viewBox="0 0 1024 1024" version="1.1" xmlns="http://www.w3.org/2000/svg" p-id="1502" xmlns:xlink="http://www.w3.org/1999/xlink" width="200" height="200"><defs><style type="text/css"></style></defs><path d="M527.82 509.26m-389.4 0a389.4 389.4 0 1 0 778.8 0 389.4 389.4 0 1 0-778.8 0Z" fill="#C4E5BE" p-id="1503"></path><path d="M443.81 922.55a8.37 8.37 0 0 1-1.38-0.12 419.1 419.1 0 0 1-113.76-789.84A8.29 8.29 0 0 1 336 147.5c-139.43 68.11-226 206.73-226 361.76 0 197.28 141 364.16 335.19 396.82a8.29 8.29 0 0 1-1.37 16.47zM566.48 924.72a8.29 8.29 0 0 1-1.07-16.52 400.26 400.26 0 0 0 96.91-25.39 8.29 8.29 0 1 1 6.18 15.39 416.88 416.88 0 0 1-100.93 26.45 8.46 8.46 0 0 1-1.09 0.07zM740.1 859.42a8.29 8.29 0 0 1-4.61-15.19 402 402 0 0 0 179.32-335c0-189.72-134.6-355.41-320.05-394A8.29 8.29 0 1 1 598.13 99a419.09 419.09 0 0 1 146.56 759 8.25 8.25 0 0 1-4.59 1.42zM568.77 848.7a5.81 5.81 0 0 1-0.44-11.6c0.19 0 19.65-1.59 37.62-8.42 17.72-6.74 39.66-27.59 39.88-27.8a5.81 5.81 0 0 1 8 8.4c-1 0.92-23.88 22.7-43.78 30.26-19.58 7.44-40 9.08-40.86 9.14z" fill="#0A0A0A" p-id="1504"></path><path d="M609.14 788.5s19.54 14.43 30 27.28 27.78 44.94 34.82 43.15 1.25-74.13-5.25-90.68-24.4-33.95-24.4-33.95z" fill="#FFFFFF" p-id="1505"></path><path d="M685.26 869.66c-8.33 0-17.06-11.21-31-30-5-6.78-9.76-13.18-13.6-17.38-11.74-12.83-34.28-27.47-34.51-27.62a5.81 5.81 0 0 1-1.51-8.33l43.27-58.4a5.81 5.81 0 0 1 8.45-0.95c0.91 0.78 22.34 19.34 30.31 37.9 4.25 9.88 7.24 33.63 8.51 51 1.06 14.48 2.19 40.08-2.19 48.81a8.39 8.39 0 0 1-5.55 4.77 9.28 9.28 0 0 1-2.18 0.2z m-67.67-81.33c7.73 5.33 22.4 16 31.64 26.08 4.25 4.64 9.17 11.28 14.37 18.31 5.73 7.74 14.77 19.94 19.85 24 2.91-14.61-0.83-71.9-7.45-87.31-4.86-11.31-16.21-23.25-22.61-29.42z" fill="#0A0A0A" p-id="1506"></path><path d="M439.22 155.75s33.15 23.82 20.33 68.67c-8.81 40.42-78 65.76-120.56 145.7-38.13 71.55 3.33 135.88 11.58 147.5s48.07 93.67 58.91 122.46 28.26 110 28.26 110l77.15 42.11 24.44 6.69s55.75 2.37 70.47-3.21 31.17-43.08 33.83-49S662 730.33 662 730.33c6-0.75 57.82-54.16 57.59-151.44-0.22-91.57-28.84-210.51-62-251.34s-67.38-73.52-68.84-78 12.9-36.5-2.68-63.37c0 0-26-37.1-39.36-46" fill="#C4E5BE" p-id="1507"></path><path d="M434 148.71s33.15 23.82 20.33 68.67c-8.81 40.42-78 65.76-120.56 145.7-38.13 71.55 3.33 135.88 11.58 147.5s48.1 93.68 58.95 122.42 28.26 110 28.26 110l77.15 42.11 24.44 6.69s55.75 2.37 70.47-3.21 31.17-43.08 33.83-49 18.35-16.29 18.35-16.29c6-0.75 57.82-54.16 57.59-151.44-0.22-91.57-28.84-210.51-62-251.34S585 247 583.51 242.5s12.9-36.5-2.68-63.37c0 0-26-37.1-39.36-46" fill="#FDCF93" p-id="1508"></path><path d="M327.88 493.6a214.59 214.59 0 0 0 25.06 1.5 6.81 6.81 0 0 0 2.82-0.36c6.37-2.74-0.06-28-0.87-33.45-2.18-14.74-4.18-29.52-4.9-44.41-2-41.06 9.2-75.78 40.59-102.71 17.84-15.31 38.14-30.46 61.92-35.46 13-2.74 24.13 0.39 36.86 1.89a101.59 101.59 0 0 0 36-2.32c20.44-5 43.4-17.05 55.65-34.94 6.19-9 3.52-20.28 1.37-30.55-6.15-29.37 4.64-34-16.35-55.29-11.46-11.64-19.5-21-40.57-28.22l-77.19 19.14s33.4 40.58-9.27 97.91c-34.56 46.44-66.72 42.5-99 104.67-16.88 32.5-21.06 69.18-22.07 91.33s5.64 50.82 9.95 51.27z" fill="#FE9456" p-id="1509"></path><path d="M525.12 813.52h-0.45l-24.73-1.78a6.33 6.33 0 0 1-1.56-0.31l-67.52-22.69a6.34 6.34 0 0 1-4.15-4.54c-0.25-1.06-25.42-106.6-36.63-135.71-11.55-30-61.62-112.63-69.72-123.72-13.2-18.07-41.21-81.86-12.61-159 16.2-43.71 49.21-72.09 81.14-99.54 8.87-7.62 18-15.51 26.76-23.63 15.34-14.3 24-28.84 25.82-43.21 3-23.75-12.8-47.18-28.54-61.2a6.34 6.34 0 1 1 8.43-9.46c23.5 20.93 35.71 47.93 32.68 72.23-2.17 17.4-12.18 34.53-29.76 50.92-8.9 8.3-18.17 16.26-27.13 24-32.12 27.61-62.46 53.69-77.52 94.33-12.14 32.74-14.89 65.84-8.19 98.36 5.13 24.88 14.77 42.79 19.15 48.78 8.28 11.33 59.47 95.88 71.32 126.64 10.48 27.22 31.8 115.1 36.32 133.91l63.43 21.32 23.5 1.69c17.46-1.1 63.91-4.85 76-9.34s27.74-28.31 31.58-36.58c3.37-7.26 17.74-16.91 22.06-19.7 54.08-34.79 82.48-110 82.58-166.24 0.08-46.1-11-93.42-21.89-133.63-12.22-45.21-27.54-91.47-56.6-123.56-11.76-13-25.35-23.81-37.09-32.7a159.42 159.42 0 0 0-16.42-10.39c-7.3-4.22-14.84-8.59-21.38-14.23a25 25 0 0 1-7.58-10.54c-2.61-7.26-0.48-14 1.23-19.43 0.57-1.82 1.11-3.53 1.46-5.15a60.33 60.33 0 0 0 0.52-20.5c-1.72-12.23-8.29-27.75-16-37.75-10.75-14-30.31-30.65-42.31-33.22A6.34 6.34 0 0 1 524 115.6c17 3.63 39.28 24.34 49.7 37.88 9 11.73 16.46 29.3 18.49 43.71a73.29 73.29 0 0 1-0.68 24.93c-0.47 2.2-1.13 4.28-1.77 6.3-1.37 4.34-2.55 8.09-1.39 11.33a13.11 13.11 0 0 0 4 5.12c5.64 4.86 12.35 8.75 19.45 12.86A171.34 171.34 0 0 1 629.49 269c12.21 9.24 26.38 20.54 38.84 34.3 30.86 34.07 46.8 82 59.44 128.76 11.09 41 22.42 89.37 22.33 137-0.11 59.71-30.5 139.64-88.39 176.87-8.17 5.27-16.32 12-17.43 14.38-2.66 5.72-20.06 36.23-38.67 43.13-16.2 6-73.6 9.73-80.09 10.14z" fill="#0A0A0A" p-id="1510"></path><path d="M471.85 175a6.51 6.51 0 0 1-6.14-4.35c-2.1-6-6.11-16.62-7.91-19.69-1.43-2.33-11-11-19.12-17.54a6.51 6.51 0 0 1 8.23-10.1c5.64 4.6 19.09 15.85 22.14 21.06s8.35 20.24 8.95 21.95a6.51 6.51 0 0 1-6.14 8.67zM507.07 171.15h-0.34a6.51 6.51 0 0 1-6.17-6.83 56 56 0 0 0-5.64-23.78c-4.77-10-18-17.13-22.68-19a6.51 6.51 0 0 1 4.91-12.06c0.88 0.36 21.62 9 29.52 25.49a68 68 0 0 1 6.9 30.06 6.51 6.51 0 0 1-6.5 6.12z" fill="" p-id="1511"></path><path d="M341.94 495.89c-16.44-0.57-35.63 4.56-45.38 19-5.14 7.63-7 17.19-6.78 26.47 0.92 35.68 30.93 89.79 67 101.69 30.47 8 46.82 5.6 49.71-16.21" fill="#FDCF93" p-id="1512"></path><path d="M362.44 667.17a47.05 47.05 0 0 1-14.33-2.11c-19.53-6.28-38.41-23.93-53.17-49.7-13-22.65-21-48.51-21.49-69.2-0.3-12.43 2.67-23.54 8.59-32.13 10.55-15.32 31.19-24 55.19-23.26a5.81 5.81 0 1 1-0.36 11.61c-15.46-0.48-35.49 4.05-45.26 18.24-5.71 8.29-6.71 18.32-6.54 25.27 0.44 18.56 8.09 43 20 63.7 13.31 23.25 29.88 39 46.64 44.42 10.5 3.37 25.13 1.14 35.59-5.44 5.18-3.26 11.61-9 12.84-18a5.81 5.81 0 0 1 11.51 1.58c-1.44 10.45-7.89 19.77-18.17 26.24a59.61 59.61 0 0 1-31.04 8.78z" fill="#0A0A0A" p-id="1513"></path><path d="M353.68 606.84c-6.08 0-13.51-1.79-21.56-6.64-6.4-3.87-8.38-8.8-8.92-12.27-1.35-8.76 5-16.26 5.73-17.09a5.8 5.8 0 0 1 0.68-0.66c2.86-2.36 10.86-10.49 10.1-16.61-0.35-2.86-2.94-5.45-7.69-7.7-5.08-2.41-9.15-2.73-12.43-1-6.41 3.39-9.37 14.1-10 17.94a5.81 5.81 0 0 1-11.48-1.75c0.3-2 3.32-19.7 16-26.43 6.67-3.54 14.37-3.29 22.89 0.74s13.38 9.72 14.24 16.79c1.55 12.67-10.89 24.12-13.82 26.62-1 1.32-3.17 4.71-2.74 7.4 0.09 0.54 0.35 2.2 3.44 4.06 10.74 6.49 18.57 5.35 21.21 3.84a5.81 5.81 0 1 1 5.76 10.09 23.27 23.27 0 0 1-11.41 2.67zM458.24 375a5.81 5.81 0 0 1-5.7-6.95c1-5 10.49-49.05 34.07-52s40.16 25.75 40.85 27a5.81 5.81 0 0 1-10.12 5.7c-3.65-6.44-16.06-22.8-29.3-21.15-12 1.5-21.44 29.45-24.11 42.75a5.81 5.81 0 0 1-5.69 4.65zM614.45 341.68a5.8 5.8 0 0 1-5.78-5.32c-1.13-13.65 4.06-41.43 31.75-48.88a5.81 5.81 0 0 1 3 11.22c-25.19 6.77-23.28 35.5-23.19 36.72a5.82 5.82 0 0 1-5.33 6.24zM618.66 567a40.69 40.69 0 0 1-12.66-1.94 5.81 5.81 0 0 1 3.62-11c9.88 3.25 21.4 0.26 28.43-4.14 4.53-2.83 7.48-6.36 7.9-9.43a17.06 17.06 0 0 0-5.38-14.16c-2.57-2.42-5.45-3.6-7.71-3.15-10.14 2-31.75 4-32.66 4.08a5.81 5.81 0 0 1-1.06-11.57c0.22 0 21.92-2 31.47-3.91 6-1.19 12.55 1 17.93 6.09a28.62 28.62 0 0 1 8.93 24.13c-0.9 6.64-5.6 12.93-13.24 17.71a49 49 0 0 1-25.57 7.29zM611.87 663.59c-20.74 0-48.78-13.43-50.07-14.06a5.81 5.81 0 0 1 5.05-10.46c8.74 4.22 34.57 14.71 49 12.65 16.74-2.4 27.55-16.79 27.66-16.94a5.81 5.81 0 1 1 9.34 6.9c-0.56 0.75-13.86 18.45-35.35 21.53a39.54 39.54 0 0 1-5.63 0.38z" fill="#0A0A0A" p-id="1514"></path><path d="M489.318859 479.903324a21.06 13.1 85.93 1 0 26.133926-1.85955 21.06 13.1 85.93 1 0-26.133926 1.85955Z" fill="#0A0A0A" p-id="1515"></path><path d="M647.645586 458.719196a21.06 13.1 85.93 1 0 26.133925-1.859549 21.06 13.1 85.93 1 0-26.133925 1.859549Z" fill="#0A0A0A" p-id="1516"></path><path d="M579 767.73a5.81 5.81 0 0 1-0.57-11.59c0.38 0 38.73-3.91 59.1-9.73a5.81 5.81 0 0 1 3.19 11.17c-21.37 6.11-59.53 10-61.14 10.12z" fill="" p-id="1517"></path><path d="M422.84 699.72s-23.81 2-22.72 14.41 10.65 24.62 11.23 32.88-18.88 38-5.58 55.36 56.77 40.64 70.4 57 26 44.47 35.93 45.09 34.05-34.36 33.41-43.08-7.6-32.41-4.78-38.32 18.94-12.55 15.17-21.35S493.66 778 482 770.64s-44-24.64-45.95-36.42 0.95-35.33-13.21-34.5z" fill="#FFFFFF" p-id="1518"></path><path d="M508.61 921.37h-0.6c-9.73-0.54-17.71-12.64-27.81-28-4.92-7.47-10-15.2-15.19-21.19-6.58-7.63-21.19-17.51-35.32-27.07-16.32-11-33.2-22.47-41.26-32.6-12.15-15.29-3.85-36.7 1.65-50.87 1.47-3.8 3.49-9 3.47-10.52-0.19-2.82-2.3-7.24-4.54-11.92-3.2-6.7-6.82-14.29-7.52-22.4-1.59-18.24 26.86-21.25 30.11-21.54h0.15a15.43 15.43 0 0 1 11.5 3.72c6.84 6.09 7.48 17.7 8 27.94 0.19 3.5 0.37 6.82 0.78 9.33 0.12 0.73 1.33 4.82 13.48 13.46 8.13 5.79 17.89 11.37 25.73 15.85 3.14 1.8 5.86 3.35 8 4.66 4.49 2.73 18.23 7.2 31.52 11.52 33.11 10.77 48 16.23 51.1 23.37 4.44 10.06-5 17.48-11.18 22.39-2 1.56-4.93 3.89-5.54 5-1 3.12 1.64 15.88 3.06 22.75a129.21 129.21 0 0 1 2.52 14.5c0.72 10.05-15.31 31.74-24.48 41.06-7.05 7.19-12.68 10.56-17.63 10.56z m-96.07-214.51c-6.84 0.63-19.91 4-19.47 8.95 0.52 6 3.53 12.32 6.44 18.41 2.72 5.71 5.3 11.1 5.64 16.16 0.27 3.9-1.62 8.76-4.23 15.49-4.81 12.39-11.39 29.37-3.38 39.44 6.94 8.74 23.07 19.65 38.67 30.2 15.44 10.44 30 20.31 37.6 29.1 5.67 6.57 11 14.61 16.1 22.39 5.53 8.38 14.76 22.38 18.69 22.75 1.8-0.23 8.45-4.63 17.9-17 8.87-11.61 12.63-20.22 12.67-22.26a130.48 130.48 0 0 0-2.3-12.91c-3.14-15.16-4.84-24.76-2.1-30.24 1.68-3.36 5.12-6.08 8.76-9 2.88-2.27 8.14-6.43 7.82-8.37-4-4.17-29-12.33-44.13-17.24s-28.31-9.21-34-12.64c-2-1.23-4.68-2.75-7.75-4.5-23.4-13.38-42.92-25.45-44.9-37.52a103 103 0 0 1-0.92-10.58c-0.39-7.18-0.92-17-4.16-19.89a3.77 3.77 0 0 0-2.95-0.74z m0.07 0z" fill="#0A0A0A" p-id="1519"></path></svg>