<?xml version="1.0" standalone="no"?><!DOCTYPE svg PUBLIC "-//W3C//DTD SVG 1.1//EN" "http://www.w3.org/Graphics/SVG/1.1/DTD/svg11.dtd"><svg t="1653836463134" class="icon" viewBox="0 0 1024 1024" version="1.1" xmlns="http://www.w3.org/2000/svg" p-id="2558" xmlns:xlink="http://www.w3.org/1999/xlink" width="200" height="200"><defs><style type="text/css"></style></defs><path d="M430.79789 1024L3.977474 837.867447l426.820416-186.132554 426.812142 186.132554z" fill="#FADBBC" p-id="2559"></path><path d="M430.79789 862.667195L3.977474 676.534641l426.820416-186.132553 426.812142 186.132553z" fill="#FFFF70" p-id="2560"></path><path d="M430.79789 1024v-161.332805L3.977474 676.534641v161.332806z" fill="#00A0C6" p-id="2561"></path><path d="M857.610032 676.534641v161.332806l-426.812142 186.132553v-161.332805z" fill="#61E0FF" p-id="2562"></path><path d="M430.79789 862.956766L3.977474 676.824213l426.820416-186.132554 426.812142 186.132554z" fill="#FADBBC" p-id="2563"></path><path d="M430.79789 701.623961L3.977474 515.491407l426.820416-186.132553 426.812142 186.132553z" fill="#FFFF70" p-id="2564"></path><path d="M430.79789 862.956766v-161.332805L3.977474 515.491407v161.332806z" fill="#D010B1" p-id="2565"></path><path d="M857.610032 515.491407v161.332806l-426.812142 186.132553v-161.332805z" fill="#FF80EA" p-id="2566"></path><path d="M430.79789 700.627007L3.977474 514.494453l426.820416-186.13669 426.812142 186.13669z" fill="#FADBBC" p-id="2567"></path><path d="M430.79789 539.294201L3.977474 353.161648l426.820416-186.13669 426.812142 186.13669z" fill="#FFFF70" p-id="2568"></path><path d="M430.79789 700.627007v-161.332806L3.977474 353.161648v161.332805z" fill="#FF0099" p-id="2569"></path><path d="M857.610032 353.161648v161.332805l-426.812142 186.132554v-161.332806z" fill="#FF7ACA" p-id="2570"></path><path d="M430.79789 539.294201L3.977474 353.161648l426.820416-186.13669 426.812142 186.13669z" fill="#FADBBC" p-id="2571"></path><path d="M430.79789 377.961396L3.977474 191.828842 430.79789 5.692152l426.812142 186.13669z" fill="#FFFF00" p-id="2572"></path><path d="M430.79789 539.294201v-161.332805L3.977474 191.828842v161.332806z" fill="#FFBF00" p-id="2573"></path><path d="M857.610032 191.828842v161.332806l-426.812142 186.132553v-161.332805z" fill="#FFE600" p-id="2574"></path><path d="M1020.022526 313.763349L932.356761 0l-281.459557 147.652611 120.135025 55.353699c-19.810841 39.849203-37.673278 100.741995-79.851465 182.541864-121.814542 236.245005-132.44596 74.531619-361.426851 53.711414-273.099209-24.820432-207.296108 464.882547-207.697372 452.364777l103.476379 42.860748c-13.62228-162.619331 27.43485-402.277145 165.167562-356.173193 182.682513 61.157543 265.648943 165.225476 365.439488-28.311839 63.656134-123.4651 108.651439-224.732461 137.099791-293.294767l126.782765 57.058035z" fill="#7FFFE1" p-id="2575"></path></svg>